<svg width="670" height="100" viewBox="0 0 670 100" fill="none" xmlns="http://www.w3.org/2000/svg">
<g clip-path="url(#clip0)">
<circle cx="50" cy="50" r="46" fill="#8ECBFF"/>
<path d="M58.7157 71.4243C58.7157 79.193 50 88.7368 50 88.7368C50 88.7368 41.2842 79.193 41.2842 71.4243C41.2842 63.6556 50 50 50 50C50 50 58.7157 63.6556 58.7157 71.4243Z" fill="#105BBC"/>
<path d="M41.2843 28.5757C41.2843 20.807 50 11.2632 50 11.2632C50 11.2632 58.7158 20.807 58.7158 28.5757C58.7158 36.3444 50 50 50 50C50 50 41.2843 36.3444 41.2843 28.5757Z" fill="#59A8F0"/>
<path d="M35.8034 68.2602C29.0755 72.1446 16.4524 69.3684 16.4524 69.3684C16.4524 69.3684 20.3597 57.0484 27.0876 53.164C33.8155 49.2797 49.9995 50 49.9995 50C49.9995 50 42.5313 64.3759 35.8034 68.2602Z" fill="#59A8F0"/>
<path d="M64.1956 31.7395C70.9235 27.8552 83.5466 30.6313 83.5466 30.6313C83.5466 30.6313 79.6393 42.9514 72.9114 46.8357C66.1835 50.7201 49.9995 49.9998 49.9995 49.9998C49.9995 49.9998 57.4677 35.6239 64.1956 31.7395Z" fill="#105BBC"/>
<path d="M72.9114 53.1638C79.6392 57.0482 83.5466 69.3682 83.5466 69.3682C83.5466 69.3682 70.9235 72.1444 64.1956 68.26C57.4677 64.3757 49.9995 49.9998 49.9995 49.9998C49.9995 49.9998 66.1835 49.2795 72.9114 53.1638Z" fill="#59A8F0"/>
<path d="M27.0877 46.8362C20.3598 42.9518 16.4524 30.6318 16.4524 30.6318C16.4524 30.6318 29.0756 27.8557 35.8034 31.74C42.5313 35.6243 49.9995 50.0002 49.9995 50.0002C49.9995 50.0002 33.8155 50.7205 27.0877 46.8362Z" fill="#105BBC"/>
<circle cx="49.9999" cy="49.9999" r="14.5263" fill="#002361"/>
<circle cx="23.3681" cy="34.021" r="8.71579" fill="white"/>
<path d="M129.832 27.328V74.272C129.832 75.496 130.336 76 131.56 76H148.48C160.936 76 168.856 71.752 168.856 60.88C168.856 55.192 165.472 51.232 160.432 49.936C164.464 48.208 167.272 44.896 167.272 39.352C167.272 29.344 159.928 25.6 148.264 25.6H131.56C130.336 25.6 129.832 26.104 129.832 27.328ZM140.848 34.6H147.616C153.88 34.6 156.904 36.184 156.904 40.288C156.904 44.248 154.168 46.12 148.12 46.12H140.848C140.128 46.12 139.912 45.832 139.912 45.184V35.536C139.912 34.816 140.128 34.6 140.848 34.6ZM148.48 67H140.848C140.128 67 139.912 66.784 139.912 66.064V56.056C139.912 55.264 140.128 55.048 140.848 55.048H148.768C154.96 55.048 158.416 56.632 158.416 60.88C158.416 65.272 155.392 67 148.48 67ZM187.162 65.704V27.328C187.162 26.104 186.658 25.6 185.362 25.6H178.81C177.586 25.6 177.082 26.104 177.082 27.328V74.272C177.082 75.496 177.586 76 178.81 76H207.898C209.122 76 209.626 75.496 209.626 74.272V68.368C209.626 67.144 209.122 66.64 207.898 66.64H188.098C187.378 66.64 187.162 66.352 187.162 65.704ZM260.996 54.4V27.328C260.996 26.104 260.492 25.6 259.196 25.6H252.644C251.42 25.6 250.916 26.104 250.916 27.328V53.896C250.916 62.464 246.74 67.504 239.108 67.504C231.404 67.504 227.372 62.464 227.372 53.824V27.328C227.372 26.104 226.868 25.6 225.572 25.6H219.02C217.796 25.6 217.292 26.104 217.292 27.328V54.544C217.292 69.88 226.292 76.864 238.748 76.864C251.636 76.864 260.996 69.448 260.996 54.4ZM302.957 66.64H283.301C282.581 66.64 282.365 66.352 282.365 65.704V56.272C282.365 55.552 282.581 55.336 283.301 55.336H300.437C301.661 55.336 302.237 54.832 302.237 53.608V47.776C302.237 46.48 301.661 45.976 300.437 45.976H283.301C282.581 45.976 282.365 45.76 282.365 45.04V35.896C282.365 35.248 282.581 34.96 283.301 34.96H302.885C304.109 34.96 304.685 34.528 304.685 33.232V27.328C304.685 26.104 304.109 25.6 302.885 25.6H274.013C272.789 25.6 272.285 26.104 272.285 27.328V74.272C272.285 75.496 272.789 76 274.013 76H302.957C304.181 76 304.757 75.496 304.757 74.272V68.368C304.757 67.072 304.181 66.64 302.957 66.64ZM344.029 74.272V27.328C344.029 26.104 343.525 25.6 342.229 25.6H335.677C334.453 25.6 333.949 26.104 333.949 27.328V74.272C333.949 75.496 334.453 76 335.677 76H342.229C343.525 76 344.029 75.496 344.029 74.272ZM365.756 74.272V35.536C365.756 34.816 365.972 34.6 366.692 34.6H372.308C379.508 34.6 383.684 36.976 383.684 42.808C383.684 48.424 379.22 50.944 373.604 51.592C372.668 51.664 372.308 51.952 372.308 52.384C372.308 52.672 372.452 53.032 372.74 53.464L385.052 73.912C386.132 75.64 386.708 76 388.58 76H395.564C396.716 76 397.292 75.712 397.292 75.136C397.292 74.776 397.076 74.344 396.716 73.768L385.052 55.264C390.524 52.96 394.196 48.784 394.196 41.944C394.196 31 387.212 25.6 372.668 25.6H357.404C356.18 25.6 355.676 26.104 355.676 27.328V74.272C355.676 75.496 356.18 76 357.404 76H363.956C365.252 76 365.756 75.496 365.756 74.272ZM413.568 74.272V27.328C413.568 26.104 413.064 25.6 411.768 25.6H405.216C403.992 25.6 403.488 26.104 403.488 27.328V74.272C403.488 75.496 403.992 76 405.216 76H411.768C413.064 76 413.568 75.496 413.568 74.272ZM424.207 63.184L421.183 67.864C420.823 68.44 420.607 68.872 420.607 69.232C420.607 69.736 420.967 70.168 421.615 70.672C426.007 74.344 432.127 76.864 439.327 76.864C450.775 76.864 458.695 70.96 458.695 61.168C458.695 52.888 453.367 48.856 442.567 46.192C436.015 44.536 432.919 43.312 432.919 39.568C432.919 36.184 435.871 34.024 440.551 34.024C445.087 34.024 448.903 35.896 452.431 38.416C452.935 38.776 453.367 38.992 453.727 38.992C454.231 38.992 454.591 38.632 454.951 38.056L457.975 33.304C458.335 32.8 458.479 32.368 458.479 32.008C458.479 31.576 458.263 31.144 457.687 30.712C453.079 27.04 447.535 24.736 440.623 24.736C430.183 24.736 422.407 30.28 422.407 40.216C422.407 49.072 428.239 52.744 438.175 55.192C445.663 57.064 448.255 58.432 448.255 61.816C448.255 65.344 445.087 67.576 439.399 67.576C434.647 67.576 430.183 65.56 426.727 62.896C426.223 62.464 425.791 62.248 425.431 62.248C424.999 62.248 424.639 62.608 424.207 63.184ZM497.31 65.704V27.328C497.31 26.104 496.806 25.6 495.51 25.6H488.958C487.734 25.6 487.23 26.104 487.23 27.328V74.272C487.23 75.496 487.734 76 488.958 76H518.046C519.27 76 519.774 75.496 519.774 74.272V68.368C519.774 67.144 519.27 66.64 518.046 66.64H498.246C497.526 66.64 497.31 66.352 497.31 65.704ZM550.268 43.096L564.812 73.768C565.676 75.568 566.324 76 567.98 76H574.82C575.828 76 576.404 75.712 576.404 74.992C576.404 74.632 576.26 74.272 576.044 73.768L553.508 28.048C552.14 25.24 551.564 24.448 550.484 24.448C549.404 24.448 548.756 25.24 547.388 28.048L524.996 73.768C524.78 74.272 524.636 74.704 524.636 74.992C524.636 75.712 525.212 76 526.22 76H532.628C534.356 76 535.004 75.568 535.868 73.768L550.268 43.096ZM582.012 27.328V74.272C582.012 75.496 582.516 76 583.74 76H600.66C613.116 76 621.036 71.752 621.036 60.88C621.036 55.192 617.652 51.232 612.612 49.936C616.644 48.208 619.452 44.896 619.452 39.352C619.452 29.344 612.108 25.6 600.444 25.6H583.74C582.516 25.6 582.012 26.104 582.012 27.328ZM593.028 34.6H599.796C606.06 34.6 609.084 36.184 609.084 40.288C609.084 44.248 606.348 46.12 600.3 46.12H593.028C592.308 46.12 592.092 45.832 592.092 45.184V35.536C592.092 34.816 592.308 34.6 593.028 34.6ZM600.66 67H593.028C592.308 67 592.092 66.784 592.092 66.064V56.056C592.092 55.264 592.308 55.048 593.028 55.048H600.948C607.14 55.048 610.596 56.632 610.596 60.88C610.596 65.272 607.572 67 600.66 67ZM628.254 63.184L625.23 67.864C624.87 68.44 624.654 68.872 624.654 69.232C624.654 69.736 625.014 70.168 625.662 70.672C630.054 74.344 636.174 76.864 643.374 76.864C654.822 76.864 662.742 70.96 662.742 61.168C662.742 52.888 657.414 48.856 646.614 46.192C640.062 44.536 636.966 43.312 636.966 39.568C636.966 36.184 639.918 34.024 644.598 34.024C649.134 34.024 652.95 35.896 656.478 38.416C656.982 38.776 657.414 38.992 657.774 38.992C658.278 38.992 658.638 38.632 658.998 38.056L662.022 33.304C662.382 32.8 662.526 32.368 662.526 32.008C662.526 31.576 662.31 31.144 661.734 30.712C657.126 27.04 651.582 24.736 644.67 24.736C634.23 24.736 626.454 30.28 626.454 40.216C626.454 49.072 632.286 52.744 642.222 55.192C649.71 57.064 652.302 58.432 652.302 61.816C652.302 65.344 649.134 67.576 643.446 67.576C638.694 67.576 634.23 65.56 630.774 62.896C630.27 62.464 629.838 62.248 629.478 62.248C629.046 62.248 628.686 62.608 628.254 63.184Z" fill="#59A8F0"/>
</g>
<defs>
<clipPath id="clip0">
<rect width="670" height="100" fill="white"/>
</clipPath>
</defs>
</svg>
